# xmcd
#
# Track frame offsets:
# 150
# 18207
# 34522
# 50667
# 70417
# 95822
# 126932
# 144967
# 164397
# 185677
# 206192
# 229070
#
# Disc length: 3281 seconds
#
#
# Revision: 0
# Processed by: cddbd v1.5.1PL2 Copyright (c) Steve Scherf et al.
# Submitted via: Nero 7, 0, 8, 2 
#
DISCID=ad0ccf0c
DTITLE=Mary Lou and The Untouchables - Untouched
DYEAR=1996
DGENRE=Blues
TTITLE0=Piece of My Heart
TTITLE1=Walk the Walk
TTITLE2=Expressway
TTITLE3=Unchain My Heart
TTITLE4=Hold Me
TTITLE5=Mustang Sally
TTITLE6=One Train
TTITLE7=Fool In Love
TTITLE8=Bobby Magee
TTITLE9=Belt It Out
TTITLE10=Europa
TTITLE11=Everybody Let's Rock
EXTD=
EXTT0=
EXTT1=
EXTT2=
EXTT3=
EXTT4=
EXTT5=
EXTT6=
EXTT7=
EXTT8=
EXTT9=
EXTT10=
EXTT11=
PLAYORDER=
